<svg xmlns="http://www.w3.org/2000/svg" xmlns:xlink="http://www.w3.org/1999/xlink" width="500" zoomAndPan="magnify" viewBox="0 0 375 374.999991" height="500" preserveAspectRatio="xMidYMid meet" version="1.0"><defs><clipPath id="cd7b23b497"><path d="M 5 4.6875 L 356 4.6875 L 356 370.6875 L 5 370.6875 Z M 5 4.6875 " clip-rule="nonzero"/></clipPath></defs><g clip-path="url(#cd7b23b497)"><path fill="#ffffff" d="M 89.074219 370.617188 C 85.59375 370.617188 82.179688 369.695312 79.226562 368.054688 C 72.597656 364.308594 68.660156 357.210938 68.988281 349.589844 L 70.496094 314.171875 C 42.730469 291.832031 22.84375 261.9375 12.867188 227.507812 C 0 182.890625 5.316406 135.84375 27.898438 95.039062 C 50.476562 54.238281 87.496094 24.601562 132.265625 11.65625 L 132.328125 11.65625 C 148.214844 7.058594 164.558594 4.757812 180.902344 4.757812 C 217.925781 4.757812 254.8125 16.914062 284.746094 39.058594 C 315.660156 61.925781 337.652344 93.464844 348.351562 130.390625 C 375 222.644531 321.4375 319.429688 229.015625 346.171875 C 213.066406 350.773438 196.722656 353.136719 180.3125 353.136719 C 163.902344 353.136719 147.558594 350.773438 131.738281 346.171875 L 100.230469 367.265625 C 96.882812 369.433594 93.011719 370.617188 89.074219 370.617188 Z M 180.902344 17.898438 C 165.742188 17.898438 150.644531 20.070312 136.003906 24.273438 L 135.941406 24.273438 C 94.585938 36.234375 60.324219 63.632812 39.449219 101.347656 C 18.511719 139.128906 13.585938 182.628906 25.46875 223.828125 C 34.984375 256.679688 54.21875 285.066406 81.128906 305.894531 C 82.835938 307.207031 83.757812 309.246094 83.691406 311.347656 L 81.984375 350.117188 C 81.851562 352.742188 83.230469 355.242188 85.527344 356.554688 C 86.578125 357.144531 87.761719 357.472656 88.941406 357.472656 C 90.320312 357.472656 91.699219 357.082031 92.816406 356.292969 L 126.882812 333.492188 C 128.523438 332.375 130.558594 332.113281 132.460938 332.703125 C 147.953125 337.5 164.035156 339.996094 180.117188 339.996094 C 195.277344 339.996094 210.375 337.828125 225.144531 333.558594 C 310.671875 308.785156 360.164062 219.292969 335.550781 134.003906 C 315.925781 65.605469 252.253906 17.898438 180.902344 17.898438 Z M 180.902344 17.898438 " fill-opacity="1" fill-rule="nonzero"/></g><path fill="#ffffff" d="M 235.777344 279.347656 C 223.765625 279.347656 207.816406 274.945312 184.054688 265.15625 C 153.398438 252.539062 123.074219 226.058594 98.523438 190.644531 C 98.132812 190.054688 97.804688 189.660156 97.671875 189.394531 C 97.671875 189.394531 97.605469 189.332031 97.605469 189.332031 L 97.410156 189.066406 C 89.53125 178.421875 76.40625 157.199219 76.40625 134.992188 C 76.40625 108.90625 89.46875 95.699219 95.046875 90.046875 L 95.441406 89.585938 C 101.152344 83.738281 107.519531 80.847656 114.34375 80.847656 C 129.703125 80.847656 142.042969 95.960938 148.476562 110.085938 C 154.582031 123.558594 158.390625 143.074219 148.871094 153.980469 C 147.753906 155.292969 146.640625 156.410156 145.589844 157.527344 C 144.210938 158.972656 142.964844 160.289062 141.652344 161.863281 C 141.585938 161.929688 141.585938 161.929688 141.519531 161.996094 L 141.386719 162.128906 C 140.863281 162.71875 140.074219 163.640625 139.878906 164.097656 C 139.945312 164.230469 140.007812 164.492188 140.207031 164.820312 C 143.621094 170.605469 153.070312 185.320312 166.132812 196.953125 C 182.542969 211.472656 195.738281 216.796875 202.105469 219.359375 C 202.695312 219.621094 203.222656 219.816406 203.679688 220.015625 C 204.402344 220.34375 205.253906 220.476562 205.976562 220.476562 C 206.566406 220.476562 207.617188 220.34375 208.210938 219.6875 C 211.164062 216.53125 214.90625 211.210938 218.910156 205.625 L 220.746094 203.0625 C 225.011719 197.082031 230.199219 195.835938 233.875 195.835938 C 235.976562 195.835938 238.140625 196.230469 240.371094 197.082031 C 268.992188 207.003906 282.511719 215.023438 287.109375 224.746094 C 290.851562 232.695312 288.160156 240.054688 285.46875 247.152344 C 285.074219 248.136719 284.679688 249.1875 284.351562 250.242188 C 279.429688 264.105469 261.179688 274.945312 246.542969 278.101562 C 243.917969 278.691406 240.4375 279.347656 235.777344 279.347656 Z M 108.175781 181.511719 C 108.4375 181.839844 108.765625 182.363281 109.355469 183.152344 C 132.460938 216.46875 160.75 241.304688 189.109375 253 C 210.964844 262.003906 225.800781 266.207031 235.84375 266.207031 C 239.257812 266.207031 241.816406 265.746094 244.113281 265.222656 C 255.207031 262.855469 269.1875 254.445312 272.273438 245.839844 C 272.667969 244.722656 273.0625 243.605469 273.457031 242.554688 C 275.6875 236.507812 276.804688 233.222656 275.488281 230.332031 C 272.800781 224.550781 259.605469 217.519531 236.304688 209.4375 C 236.238281 209.4375 236.171875 209.371094 236.171875 209.371094 C 235.449219 209.109375 234.726562 208.910156 234.203125 208.910156 C 233.808594 208.910156 233.019531 208.910156 231.773438 210.621094 L 229.9375 213.183594 C 225.667969 219.160156 221.664062 224.746094 218.121094 228.621094 C 215.101562 231.84375 210.902344 233.550781 206.304688 233.550781 C 203.8125 233.550781 201.316406 233.027344 198.953125 232.105469 C 198.496094 231.910156 198.035156 231.710938 197.511719 231.515625 C 191.011719 228.886719 175.785156 222.773438 157.730469 206.742188 C 143.75 194.390625 133.839844 179.277344 129.179688 171.390625 C 123.992188 162.457031 129.375 156.214844 131.671875 153.519531 L 131.738281 153.453125 C 133.3125 151.546875 134.824219 149.90625 136.269531 148.394531 C 137.253906 147.34375 138.238281 146.359375 139.15625 145.242188 C 143.292969 140.511719 142.242188 127.695312 136.660156 115.476562 C 130.820312 102.597656 121.894531 93.921875 114.476562 93.921875 C 111.257812 93.921875 108.042969 95.566406 104.890625 98.785156 L 104.433594 99.246094 C 99.640625 104.109375 89.597656 114.292969 89.597656 134.925781 C 89.597656 148.394531 96.292969 165.28125 108.042969 181.25 Z M 108.175781 181.511719 " fill-opacity="1" fill-rule="nonzero"/></svg>