<?xml version="1.0" encoding="UTF-8" standalone="no"?>
<!-- Created with Inkscape (http://www.inkscape.org/) -->

<svg
   width="499.97708"
   height="132.14662"
   viewBox="0 0 132.28559 34.963792"
   version="1.1"
   id="svg5"
   xml:space="preserve"
   xmlns="http://www.w3.org/2000/svg"
   xmlns:svg="http://www.w3.org/2000/svg"><defs
     id="defs2" /><g
     id="layer1"
     transform="translate(-0.00303034,-2.3618537)"><path
       style="fill:#000000;stroke-width:0.0881504"
       d="M 15.110421,37.238162 C 8.518941,36.285492 2.954101,31.643962 0.89159112,25.378506 -0.55181891,20.993743 -0.22808891,16.294539 1.800031,12.191784 c 2.50017,-5.0576733 7.18232,-8.5688563 12.78005,-9.5838519 1.26116,-0.228678 4.0873,-0.275776 5.42658,-0.0904 7.13206,0.9870006 12.914206,6.1127176 14.681667,13.0149339 0.407163,1.590031 0.525381,2.569218 0.525381,4.351619 0,1.787608 -0.118117,2.761144 -0.530348,4.371122 -1.753832,6.849635 -7.55654,12.007245 -14.61003,12.985715 -1.22067,0.16931 -3.7822,0.16789 -4.96291,-0.003 z m 3.96078,-1.21883 c 2.34717,-0.13219 5.32092,-1.15369 7.48567,-2.5714 4.10042,-2.68544 6.749962,-7.016699 7.286899,-11.912089 0.572885,-5.223161 -1.616419,-10.626246 -5.679749,-14.0173343 -4.09294,-3.415787 -9.44933,-4.6287496 -14.67489,-3.323144 -0.94263,0.235514 -1.83521,0.568914 -2.93078,1.094739 -5.88865,2.826278 -9.4669199,8.7362823 -9.20861,15.2093143 0.0829,2.078356 0.47795,3.852041 1.27341,5.717944 2.39279,5.61262 7.82852,9.45866 13.9015,9.83601 0.55906,0.0351 1.17558,0.0523 1.37004,0.0382 0.19445,-0.0142 0.72388,-0.0468 1.17651,-0.0724 z m -2.01711,-6.83862 c -0.53903,-0.36493 -0.66376,-0.62025 -0.64735,-1.3254 0.03,-1.289872 0.63368,-4.052887 0.99249,-4.542731 0.35798,-0.488727 0.68454,-0.175867 1.01481,0.972255 0.2756,0.958024 0.59595,2.837045 0.61501,3.607246 0.0119,0.48016 -0.0208,0.64185 -0.1702,0.84248 -0.30033,0.40331 -0.72665,0.64394 -1.14094,0.64394 -0.23987,0 -0.47521,-0.0703 -0.66382,-0.19779 z m 5.54261,-2.140684 c -0.47389,-0.255532 -2.24108,-2.877432 -2.63579,-3.910585 -0.20698,-0.541781 -0.2147,-0.922244 -0.0202,-0.996474 0.20688,-0.07897 1.15385,0.383825 2.00392,0.979326 1.02687,0.719339 2.2639,1.768712 2.45778,2.084925 0.35695,0.582178 0.13177,1.440598 -0.4743,1.80813 -0.34595,0.209783 -0.9762,0.226204 -1.33139,0.03466 z m -11.65766,-0.46057 c -0.32347,-0.300092 -0.36825,-0.391053 -0.40408,-0.82077 -0.053,-0.635379 0.0946,-0.906252 0.79397,-1.457703 1.45433,-1.146669 3.32364,-2.219153 3.86794,-2.219153 0.2451,0 0.2671,0.02479 0.2671,0.300381 0,0.531711 -1.06552,2.262011 -2.30559,3.744049 -0.52805,0.63108 -0.81184,0.790688 -1.4058,0.790688 -0.39948,0 -0.49043,-0.03769 -0.81354,-0.337492 z m 6.17386,-5.24125 c -0.6735,-0.238828 -1.0302,-0.745749 -1.0302,-1.464053 0,-1.378709 1.59728,-2.086625 2.59329,-1.149349 0.3588,0.33764 0.50035,0.652717 0.50035,1.113733 0,0.757245 -0.43084,1.343077 -1.12971,1.536131 -0.41676,0.115116 -0.5174,0.111188 -0.93373,-0.03641 z M 9.107391,21.10455 c -0.43273,-0.08801 -0.73703,-0.351509 -0.92533,-0.801204 -0.21187,-0.506001 -0.14137,-0.930076 0.22331,-1.343166 0.4244,-0.480765 0.75279,-0.535609 2.12851,-0.355507 1.35456,0.177331 2.96371,0.559648 3.49926,0.831393 0.65836,0.334043 0.44424,0.683225 -0.6263,1.021349 -1.2684,0.400611 -3.7069796,0.767659 -4.29945,0.647135 z m 15.40547,-0.03779 c -1.92886,-0.27997 -3.46631,-0.740206 -3.65708,-1.094733 -0.22434,-0.416923 1.18724,-0.928296 3.51287,-1.272608 1.78853,-0.264793 2.30491,-0.145851 2.67589,0.616338 0.2358,0.484455 0.17872,0.973691 -0.16037,1.374492 -0.44369,0.524443 -0.87753,0.593321 -2.37131,0.376511 z m -10.22145,-3.633415 c -1.19337,-0.624354 -3.3002,-2.184893 -3.60811,-2.672539 -0.25454,-0.403136 -0.20142,-1.198659 0.10158,-1.521232 0.30705,-0.326892 0.63814,-0.476369 1.05512,-0.476369 0.51295,0 0.80069,0.178632 1.30533,0.810373 1.20646,1.510276 2.23026,3.265902 2.23026,3.824479 0,0.269109 -0.0199,0.288193 -0.30039,0.288193 -0.16522,0 -0.51792,-0.113807 -0.78379,-0.252905 z m 5.62375,0.120377 c -0.15252,-0.395302 0.41544,-1.49068 1.57225,-3.03229 1.13706,-1.51529 1.57235,-1.844834 2.26587,-1.715423 0.90826,0.169462 1.39242,1.19938 0.93267,1.984015 -0.28288,0.482811 -2.43371,2.001246 -3.66808,2.589613 -0.69501,0.33127 -1.02214,0.382916 -1.10271,0.174085 z m -2.44639,-0.99271 c -0.39613,-0.435346 -1.04177,-3.276099 -1.06647,-4.692315 -0.0114,-0.656606 0.1249,-0.924643 0.65179,-1.281296 0.68328,-0.462526 1.72446,-0.04701 1.9476,0.777076 0.15202,0.561537 -0.30355,3.408663 -0.73022,4.563539 -0.28272,0.765262 -0.5154,0.948743 -0.8027,0.632996 z m 28.645434,10.602584 c -1.050852,-0.07447 -2.357815,-0.409843 -3.237276,-0.830557 l -0.657038,-0.314314 0.05726,-1.059187 c 0.0315,-0.582551 0.05853,-1.39913 0.06006,-1.81461 l 0.0029,-0.755418 0.188609,0.26373 c 0.364263,0.509366 1.191713,1.233184 1.682534,1.471823 0.774484,0.376564 1.431031,0.516008 2.463665,0.523251 1.483873,0.01042 2.362647,-0.279425 2.875703,-0.948435 0.312222,-0.407128 0.377671,-1.086581 0.147217,-1.528404 -0.286826,-0.549899 -0.820615,-0.803331 -2.05995,-0.978 -2.49177,-0.35119 -3.46834,-0.701028 -4.319169,-1.547252 -0.589036,-0.585848 -0.859139,-1.177659 -1.008475,-2.209575 -0.32418,-2.240156 0.998139,-4.108109 3.338877,-4.716623 0.717083,-0.18642 2.441767,-0.186383 3.349354,7.3e-5 0.718552,0.147613 1.298861,0.348483 1.925716,0.666547 l 0.360712,0.18303 -0.05885,1.20115 c -0.03237,0.660624 -0.08167,1.368086 -0.109548,1.572127 l -0.05069,0.370973 -0.373101,-0.370973 c -0.784958,-0.780493 -2.045424,-1.219799 -3.511189,-1.223725 -0.730524,-0.0018 -0.925241,0.03012 -1.345622,0.221497 -0.808816,0.368295 -1.056663,1.048604 -0.681413,1.8704 0.288371,0.631533 0.866705,0.882958 2.807356,1.220481 2.042237,0.355179 2.953409,0.743612 3.743078,1.595672 0.47377,0.511202 0.687052,1.000718 0.81428,1.86889 0.197457,1.347439 -0.19836,2.710725 -1.052715,3.625788 -1.192612,1.277361 -2.938394,1.812847 -5.352181,1.641641 z m 50.491435,0.0092 c -0.607683,-0.02866 -1.472791,-0.103498 -1.922474,-0.166341 l -0.817603,-0.114359 v -7.020444 c 0,-3.861239 0.03234,-7.020431 0.0719,-7.020431 0.03957,0 0.526792,-0.06023 1.082767,-0.133809 1.364534,-0.180621 3.556315,-0.17953 4.462406,0.0018 1.431504,0.287141 2.562304,1.03697 3.048894,2.021694 0.1888,0.382125 0.21718,0.560165 0.21718,1.362632 0,0.837047 -0.0226,0.965775 -0.24291,1.381354 -0.1336,0.252061 -0.35888,0.589666 -0.50061,0.750221 l -0.2577,0.29193 0.56678,0.292281 c 0.98368,0.50724 1.74846,1.528933 1.99283,2.662215 0.1391,0.645075 0.0434,2.030998 -0.18488,2.677871 -0.80156,2.2712 -3.16369,3.218002 -7.516599,3.012852 z m 3.49139,-2.568983 c 1.04531,-0.483401 1.54175,-1.180921 1.54453,-2.170115 0.002,-0.581886 -0.17272,-1.02033 -0.51715,-1.300364 -0.64614,-0.525333 -2.229845,-0.816744 -3.634875,-0.668828 l -0.751312,0.07906 v 2.10901 2.109017 l 0.265172,0.06048 c 0.14584,0.03325 0.78224,0.05298 1.41423,0.04375 1.052671,-0.01538 1.193551,-0.03732 1.679405,-0.262032 z m -0.958545,-6.633107 c 0.481231,-0.250787 0.703211,-0.544435 0.819611,-1.084252 0.177384,-0.822706 -0.0809,-1.51421 -0.701071,-1.876524 -0.26723,-0.156129 -0.4586,-0.180576 -1.41393,-0.180576 h -1.104872 l -0.02421,1.579451 c -0.01334,0.868699 -0.0027,1.634487 0.02302,1.701755 0.03755,0.09748 0.249262,0.115108 1.040692,0.08693 0.80253,-0.02856 1.06412,-0.07219 1.36081,-0.226788 z m -43.346753,8.972262 -0.198877,-0.03808 v -7.060213 -7.060219 l 1.37004,-0.0056 1.370036,-0.0056 v 2.80823 2.808237 h 2.563301 2.563297 v -2.813071 -2.813163 h 1.370041 1.370035 v 7.120825 7.120823 h -0.826732 c -0.454708,0 -1.0707,-0.02535 -1.368878,-0.05638 l -0.542146,-0.05639 -0.02324,-2.954615 -0.02324,-2.954606 -2.541203,-0.02333 -2.541201,-0.02332 v 3.034297 3.034289 l -1.171163,-0.01199 c -0.64414,-0.0065 -1.260657,-0.02911 -1.370035,-0.05004 z m 12.827368,-0.01832 -0.453164,-0.05161 2.418409,-6.725231 c 1.330114,-3.698864 2.443821,-6.872416 2.474906,-7.052318 l 0.05656,-0.3271 1.482315,-3.46e-4 1.482312,-3.45e-4 0.05785,0.306744 c 0.03181,0.168715 1.172825,3.355781 2.535541,7.082372 1.362734,3.726583 2.463138,6.790088 2.445357,6.807783 -0.01781,0.01777 -0.737726,0.0083 -1.599866,-0.02131 l -1.567519,-0.05363 -0.4693,-1.458779 -0.469308,-1.458784 -2.447961,-0.02333 c -1.912816,-0.01832 -2.456128,8.44e-4 -2.485375,0.08783 -0.02056,0.06111 -0.240815,0.754136 -0.489422,1.539835 l -0.452013,1.428566 -1.033059,-0.01437 c -0.568176,-0.0083 -1.236979,-0.03751 -1.486225,-0.06598 z m 7.478005,-5.655955 c -0.0055,-0.268173 -1.574209,-4.843188 -1.620506,-4.725246 -0.150903,0.384387 -1.470994,4.618301 -1.470994,4.717895 0,0.09325 0.316589,0.117243 1.546815,0.117243 1.17967,0 1.546321,-0.02608 1.544685,-0.109892 z m 9.172561,5.673259 -0.24307,-0.03659 v -5.844033 -5.844026 l -1.613115,0.0258 c -0.887212,0.01419 -1.683772,0.06007 -1.770156,0.101976 -0.147457,0.07165 -0.155544,-0.0056 -0.132582,-1.264576 l 0.02448,-1.340793 0.928092,0.03377 c 0.510455,0.01868 2.686178,0.03378 4.834956,0.03378 3.007664,0 3.932284,-0.02525 4.017311,-0.109881 0.06076,-0.06041 0.142268,-0.109891 0.181156,-0.109891 0.03892,0 0.07072,0.603288 0.07081,1.340649 v 1.340649 l -1.767904,-0.02709 -1.76789,-0.02709 v 5.895189 5.89519 l -1.259548,-0.01317 c -0.692752,-0.0074 -1.368937,-0.02966 -1.502625,-0.04977 z m 21.788034,8.35e-4 -0.19887,-0.03806 V 19.84593 12.787065 l 1.37004,-0.0083 1.37004,-0.0083 v 2.809646 2.809657 h 2.5191 2.51909 V 15.57731 12.764839 l 1.37005,0.0036 1.37003,0.0036 v 7.116408 7.116407 l -0.7734,-4.19e-4 c -0.42537,-3.45e-4 -1.04189,-0.02589 -1.37004,-0.05675 l -0.59664,-0.05611 v -2.976242 -2.97628 h -2.51909 -2.5191 v 3.032943 3.032952 l -1.17117,-0.01199 c -0.64414,-0.0065 -1.26065,-0.02911 -1.37004,-0.05004 z m 12.77231,-0.0027 c -0.23092,-0.01813 -0.41985,-0.04977 -0.41985,-0.07057 0,-0.02068 1.08922,-3.074528 2.42047,-6.786343 1.33128,-3.711809 2.4479,-6.876163 2.48137,-7.031892 l 0.0608,-0.283141 1.49617,-3.43e-4 1.49616,-3.46e-4 0.003,0.239581 c 9.1e-4,0.131767 1.1314,3.325265 2.51129,7.09667 1.53497,4.195189 2.46905,6.865317 2.40623,6.878279 -0.0565,0.01161 -0.77606,-0.0083 -1.59907,-0.04403 l -1.49642,-0.06515 -0.49041,-1.472524 -0.49041,-1.472513 h -2.43531 -2.4353 l -0.48338,1.538446 -0.48335,1.538455 -1.06081,-0.01593 c -0.58345,-0.0092 -1.24975,-0.03068 -1.48066,-0.04876 z m 7.53521,-5.585886 c 0,-0.07121 -1.56889,-4.818252 -1.60391,-4.853095 -0.0228,-0.02268 -0.3748,1.015866 -0.78205,2.308051 -0.40724,1.292193 -0.75721,2.398884 -0.77772,2.459326 -0.0289,0.08525 0.32189,0.109882 1.56322,0.109882 0.88024,0 1.60046,-0.01088 1.60046,-0.02415 z"
       id="path302" /></g></svg>
