<?xml version="1.0" encoding="UTF-8" standalone="no"?>
<!-- Created with Inkscape (http://www.inkscape.org/) -->

<svg
   width="1023.3906"
   height="198.44072"
   viewBox="0 0 270.77206 52.504103"
   version="1.1"
   id="svg5"
   xml:space="preserve"
   xmlns="http://www.w3.org/2000/svg"
   xmlns:svg="http://www.w3.org/2000/svg"><defs
     id="defs2" /><g
     id="layer1"
     transform="translate(-40.373065,-66.350209)"><path
       id="path302"
       style="fill:#000000;stroke:#000000;stroke-width:1.029;stroke-dasharray:none;stroke-opacity:1"
       d="m 67.243281,66.866507 c -1.850251,-0.0167 -3.895993,0.0893 -5.048175,0.29972 -8.182424,1.49415 -15.026599,6.66297 -18.681197,14.10824 -2.964581,6.03956 -3.437838,12.95649 -1.327951,19.411193 3.014852,9.22321 11.149135,16.05603 20.784163,17.45843 1.725893,0.25156 5.470328,0.2538 7.254627,0.004 10.310369,-1.44038 18.792335,-9.03287 21.355983,-19.116043 0.602575,-2.37 0.775772,-3.8034 0.775772,-6.43489 0,-2.62383 -0.173054,-4.06535 -0.768218,-6.40599 -2.583566,-10.16 -11.035765,-17.70512 -21.460981,-19.15806 -0.734125,-0.10234 -1.773871,-0.15657 -2.884023,-0.1666 z m -0.910228,1.88277 c 5.704985,-0.0729 11.231506,1.87405 15.718611,5.64527 5.939534,4.99194 9.139745,12.94555 8.302333,20.63443 -0.784858,7.206373 -4.6578,13.582853 -10.651547,17.536023 -3.164305,2.08698 -7.511425,3.59072 -10.942372,3.78533 v -7.2e-4 c -0.661628,0.0377 -1.435756,0.0856 -1.719991,0.1065 -0.28425,0.0208 -1.185302,-0.004 -2.002502,-0.0555 -8.877114,-0.55557 -16.822725,-6.21736 -20.320361,-14.47955 -1.162755,-2.746743 -1.740066,-5.357833 -1.861247,-8.417323 -0.377582,-9.52878 4.853121,-18.22891 13.460799,-22.3894 1.601435,-0.77405 2.905851,-1.2645 4.28373,-1.61119 1.909603,-0.48049 3.830885,-0.72956 5.732547,-0.75387 z m 0.515924,9.88246 c -0.361841,-0.0186 -0.725012,0.0679 -1.037132,0.2807 -0.770175,0.52502 -0.969945,0.91925 -0.953282,1.88582 0.03611,2.08478 0.980053,6.2672 1.559095,6.90806 0.419954,0.46481 0.759833,0.19465 1.173097,-0.93188 0.623682,-1.70006 1.290316,-5.89125 1.068101,-6.71788 -0.224242,-0.83402 -1.013831,-1.38393 -1.809879,-1.42482 z m -8.658872,3.48332 c -0.609516,0 -1.09365,0.22017 -1.542478,0.70138 -0.442905,0.47485 -0.52088,1.6461 -0.148807,2.23955 0.450084,0.71785 3.530391,3.01533 5.274787,3.93442 0.388632,0.20476 0.903642,0.37199 1.145151,0.37199 0.410002,0 0.439629,-0.0283 0.439629,-0.42448 0,-0.82226 -1.496673,-3.40682 -3.260204,-5.63006 -0.737654,-0.92997 -1.158277,-1.1928 -1.908078,-1.1928 z m 17.048826,0.0259 c -0.82364,-0.004 -1.492395,0.61106 -2.94672,2.56285 -1.690954,2.26937 -2.52155,3.88197 -2.298608,4.46388 0.117765,0.30742 0.596048,0.2313 1.611972,-0.25636 1.804327,-0.86612 4.94816,-3.10197 5.36166,-3.81271 0.672031,-1.15504 -0.03583,-2.67092 -1.363456,-2.92038 -0.126721,-0.0238 -0.247181,-0.0367 -0.364848,-0.0373 z m -8.581068,8.12217 c -1.162822,-0.004 -2.266125,0.92486 -2.266125,2.32018 0,1.05739 0.520982,1.80353 1.505467,2.15511 0.608563,0.21727 0.755767,0.22347 1.364961,0.054 1.021566,-0.2842 1.651252,-1.14689 1.651252,-2.26161 0,-0.67865 -0.206731,-1.14231 -0.731203,-1.63935 -0.454971,-0.43116 -0.995795,-0.62642 -1.524352,-0.62835 z m -12.081477,0.31341 c -0.686107,0.0211 -1.019538,0.21874 -1.407262,0.66106 -0.533071,0.6081 -0.636023,1.23223 -0.326324,1.9771 0.275244,0.66199 0.720339,1.05032 1.352879,1.17987 0.866036,0.17742 4.430652,-0.36268 6.284724,-0.95241 1.564853,-0.49775 1.877867,-1.0122 0.915517,-1.50394 -0.782836,-0.40003 -3.13539,-0.96295 -5.115405,-1.22399 -0.754103,-0.0994 -1.292465,-0.15037 -1.704129,-0.13768 z m 23.564701,0.0966 c -0.446882,0.0209 -0.984069,0.0836 -1.637654,0.18105 -3.399472,0.50685 -5.462971,1.25914 -5.135044,1.87288 0.278854,0.52189 2.526301,1.19982 5.345794,1.61196 2.183516,0.31916 2.817859,0.21746 3.466419,-0.55456 0.495662,-0.59001 0.578847,-1.31036 0.234164,-2.02351 -0.406708,-0.8415 -0.933038,-1.15043 -2.273679,-1.08782 z m -15.044062,5.15994 c -0.795624,0 -3.528134,1.57853 -5.653988,3.26651 -1.022297,0.81178 -1.238482,1.210653 -1.161013,2.145983 0.05237,0.63257 0.117877,0.76625 0.590706,1.20801 0.472303,0.44133 0.605781,0.49675 1.189713,0.49675 0.868219,0 1.282754,-0.2349 2.054625,-1.16389 1.812661,-2.181673 3.370484,-4.728673 3.370484,-5.511393 0,-0.40568 -0.03226,-0.44197 -0.390527,-0.44197 z m 7.095999,0.0677 c -0.06922,-0.009 -0.123857,-0.007 -0.161651,0.008 -0.284309,0.10927 -0.273092,0.66912 0.02945,1.46666 0.57696,1.52088 3.15971,5.380933 3.852415,5.757093 0.519197,0.28197 1.440918,0.25785 1.946603,-0.051 0.88592,-0.54104 1.215205,-1.80474 0.693437,-2.66175 -0.283399,-0.465483 -2.09231,-2.010563 -3.593326,-3.069483 -1.087258,-0.76705 -2.282415,-1.38466 -2.766942,-1.44917 z m -3.398433,1.41645 c -0.156123,-0.007 -0.314633,0.10304 -0.478155,0.32787 -0.524487,0.72108 -1.407225,4.787913 -1.451076,6.686693 -0.02401,1.03803 0.158565,1.41404 0.946485,1.95124 0.275699,0.18768 0.619274,0.29135 0.969902,0.29135 0.605584,0 1.228865,-0.35414 1.667869,-0.94785 0.218383,-0.29535 0.265914,-0.5339 0.248519,-1.24072 -0.02785,-1.1338 -0.496039,-3.89952 -0.898895,-5.309803 -0.331903,-1.16196 -0.661188,-1.74304 -1.004649,-1.75878 z" /><path
       id="path302-6"
       style="fill:#000000;stroke-width:0.210246"
       d="m 108.32789,75.170299 c -1.51275,-2.3e-5 -2.96937,0.111659 -3.82452,0.334002 -5.582839,1.451347 -8.736527,5.906314 -7.963332,11.249243 0.356175,2.461207 1.000987,3.872992 2.405883,5.270253 2.029289,2.018311 4.358369,2.852582 10.301429,3.6902 2.95591,0.416601 4.22874,1.020385 4.91284,2.331933 0.54965,1.05376 0.3934,2.67478 -0.35127,3.6458 -1.22368,1.59564 -3.31984,2.28651 -6.85899,2.2617 -2.46291,-0.0167 -4.02824,-0.3492 -5.87544,-1.24732 -1.170649,-0.56918 -3.144301,-2.29535 -4.013096,-3.510238 l -0.44987,-0.629822 -0.0062,1.80195 c -0.0035,0.99096 -0.06908,2.93922 -0.144203,4.32864 l -0.136809,2.52544 1.56777,0.74937 c 2.097579,1.00346 5.214168,1.80421 7.720528,1.98191 h 10e-4 c 5.75706,0.40835 9.92077,-0.86915 12.76524,-3.91574 2.0377,-2.18249 2.9816,-5.43363 2.51065,-8.647388 -0.30345,-2.070655 -0.81248,-3.238789 -1.94246,-4.458058 -1.88342,-2.032219 -4.05627,-2.958885 -8.92716,-3.806019 -4.6286,-0.805014 -6.00852,-1.403732 -6.6963,-2.909992 -0.895,-1.960065 -0.30339,-3.58334 1.6257,-4.46174 1.00264,-0.456501 1.46713,-0.533512 3.20949,-0.528749 3.49596,0.0093 6.50157,1.05831 8.37376,2.919857 l 0.88988,0.883722 0.12078,-0.883722 c 0.0665,-0.486664 0.18411,-2.174947 0.2613,-3.750584 l 0.14052,-2.864388 -0.8603,-0.436284 c -1.4951,-0.758631 -2.87858,-1.237917 -4.59238,-1.589974 -1.08233,-0.222285 -2.65195,-0.33399 -4.1647,-0.334002 z m 119.662,0.0046 c -1.98386,-9.18e-4 -4.10521,0.106314 -5.73246,0.321685 -1.32605,0.175541 -2.4877,0.31921 -2.58214,0.31921 -0.0945,0 -0.17132,7.535736 -0.17132,16.745069 v 16.743857 l 1.94984,0.27236 c 1.07253,0.14978 3.13562,0.32844 4.58498,0.39688 v -0.001 c 10.38202,0.4893 16.0165,-1.7686 17.92828,-7.18559 0.54446,-1.54284 0.773,-4.848399 0.44124,-6.386972 -0.58283,-2.702929 -2.40773,-5.138898 -4.75385,-6.348709 l -1.35207,-0.69762 0.61503,-0.696365 c 0.33803,-0.382952 0.87566,-1.188443 1.1943,-1.789613 0.52544,-0.991187 0.5793,-1.298104 0.5793,-3.294537 0,-1.913949 -0.0673,-2.338788 -0.51766,-3.250163 -1.16056,-2.348641 -3.85762,-4.136779 -7.27189,-4.821641 -1.08054,-0.216567 -2.92776,-0.325694 -4.91158,-0.326611 z m -14.1358,0.01174 c -0.0927,0 -0.28763,0.118573 -0.43265,0.262544 -0.20279,0.202021 -2.40689,0.26129 -9.58041,0.26129 -5.12496,0 -10.31525,-0.03544 -11.5327,-0.08006 l -2.21362,-0.08133 -0.058,3.198424 c -0.0547,3.001783 -0.0361,3.186979 0.31554,3.015969 0.20603,-0.09992 2.10656,-0.208933 4.22262,-0.242791 l 3.84794,-0.06158 v 13.938613 13.938592 l 0.57928,0.0863 v 10e-4 c 0.31887,0.048 1.93192,0.10167 3.58418,0.11831 l 3.00365,0.0308 V 95.513162 81.452525 l 4.21646,0.06414 4.21648,0.0653 v -3.198377 c -2.4e-4,-1.758672 -0.0761,-3.197181 -0.16884,-3.197181 z m -66.87057,0.417845 v 6.709841 6.708633 h -6.11455 -6.11332 v -6.697537 -6.697513 l -3.26741,0.01429 -3.26743,0.01429 v 16.838742 16.83999 l 0.47452,0.0898 v -0.001 c 0.26089,0.0499 1.7311,0.10514 3.26742,0.11949 l 2.7929,0.0285 v -7.23739 -7.23616 l 6.06155,0.05554 6.06032,0.05531 0.0554,7.04634 0.0554,7.04757 1.29293,0.13429 c 0.71118,0.0739 2.18044,0.13428 3.26495,0.13428 h 1.97203 V 92.587425 75.604515 h -3.26742 z m 122.0617,0.007 v 6.708622 6.70739 h -6.0073 -6.00858 v -6.701218 -6.701209 l -3.2674,0.01905 -3.26865,0.01906 v 16.836266 16.835045 l 0.47451,0.0911 v 0.005 c 0.26089,0.0499 1.7311,0.10516 3.26743,0.11949 l 2.79411,0.0285 v -7.23369 -7.233684 h 6.00858 6.0073 v 7.098114 7.09934 l 1.42357,0.13308 c 0.78265,0.0734 2.25287,0.13476 3.26741,0.13548 l 1.84509,0.001 V 92.604912 75.631831 l -3.26742,-0.0093 z m 26.78889,0.0046 -3.56815,0.0012 -0.14548,0.675439 c -0.0799,0.371403 -2.74215,7.918003 -5.91736,16.770933 -3.17513,8.852964 -5.77313,16.137384 -5.77313,16.186754 0,0.0496 0.45004,0.12445 1.0008,0.16766 h 10e-4 c 0.55073,0.0432 2.13959,0.0956 3.53117,0.11714 l 2.53038,0.0369 1.15363,-3.66922 1.1524,-3.66923 h 5.80888 5.80766 l 1.16965,3.51269 1.16967,3.51146 3.56939,0.15526 c 1.96294,0.0859 3.67868,0.13238 3.81342,0.10481 0.14978,-0.031 -2.07759,-6.39906 -5.73861,-16.404928 -3.29115,-8.995089 -5.98791,-16.611972 -5.99007,-16.926221 l -0.007,-0.570658 z m -122.2848,0.0012 -3.53487,0.0012 -0.13556,0.780173 c -0.0741,0.429081 -2.73014,7.998198 -5.90255,16.820256 l -5.76821,16.040077 1.08092,0.12327 c 0.59447,0.068 2.18958,0.13882 3.54473,0.15767 l 2.46382,0.0346 1.07846,-3.40793 c 0.59293,-1.87394 1.11806,-3.52719 1.1672,-3.67292 0.0697,-0.20749 1.36624,-0.25318 5.92843,-0.20965 l 5.83847,0.0567 1.11912,3.47817 1.11914,3.4794 3.73824,0.12837 c 2.05627,0.0699 3.77344,0.093 3.8159,0.0507 0.0424,-0.0423 -2.58207,-7.34908 -5.83232,-16.237277 -3.25016,-8.888206 -5.9709,-16.489333 -6.04675,-16.891713 l -0.13805,-0.73092 z m 52.80625,4.916557 h 2.63512 c 2.27855,0 2.73483,0.05891 3.37219,0.431381 1.47916,0.864179 2.09562,2.513074 1.67254,4.4753 -0.27763,1.287484 -0.80701,1.98766 -1.95479,2.585832 -0.70763,0.368673 -1.33238,0.472861 -3.24647,0.541076 -1.88762,0.06727 -2.39163,0.02556 -2.48109,-0.207028 -0.0619,-0.160517 -0.087,-1.986766 -0.0553,-4.058687 z m 69.22218,3.987207 c 0.0835,0.08296 3.82576,11.404788 3.82576,11.574612 0,0.03172 -1.71769,0.05786 -3.81712,0.05786 -2.96068,0 -3.79731,-0.05914 -3.72838,-0.262533 0.0489,-0.144297 0.88364,-2.7836 1.85494,-5.865566 0.97132,-3.081954 1.81041,-5.558591 1.8648,-5.504458 z m -122.31807,0.101086 c 0.1105,-0.281286 3.85328,10.630552 3.8652,11.270181 0.003,0.199871 -0.87041,0.262521 -3.68401,0.262521 -2.93417,0 -3.69017,-0.05752 -3.69017,-0.279787 0,-0.237552 3.14908,-10.336137 3.50898,-11.252915 z m 56.15871,9.268555 c 2.98902,-0.0861 6.05037,0.582347 7.39883,1.678721 0.82148,0.667886 1.23729,1.713195 1.23251,3.101002 -0.007,2.359338 -1.18964,4.023688 -3.68276,5.176628 -1.15881,0.53598 -1.49503,0.58814 -4.00572,0.62487 -1.50734,0.0215 -3.02555,-0.0253 -3.3734,-0.1048 l -0.63228,-0.1443 v -5.029947 -5.029928 l 1.79208,-0.188647 c 0.41889,-0.04404 0.84374,-0.07157 1.27074,-0.08377 z" /></g></svg>
