<?xml version="1.0" encoding="UTF-8" standalone="no"?>
<!-- Created with Inkscape (http://www.inkscape.org/) -->

<svg
   width="500.00003"
   height="500"
   viewBox="0 0 132.29166 132.29166"
   version="1.1"
   id="svg5"
   xml:space="preserve"
   inkscape:export-filename="bitmap.svg"
   inkscape:export-xdpi="96.004402"
   inkscape:export-ydpi="96.004402"
   xmlns:inkscape="http://www.inkscape.org/namespaces/inkscape"
   xmlns:sodipodi="http://sodipodi.sourceforge.net/DTD/sodipodi-0.dtd"
   xmlns="http://www.w3.org/2000/svg"
   xmlns:svg="http://www.w3.org/2000/svg"><sodipodi:namedview
     id="namedview7"
     pagecolor="#ffffff"
     bordercolor="#000000"
     borderopacity="0.25"
     inkscape:showpageshadow="2"
     inkscape:pageopacity="0.0"
     inkscape:pagecheckerboard="0"
     inkscape:deskcolor="#d1d1d1"
     inkscape:document-units="mm"
     showgrid="false"
     inkscape:lockguides="false" /><defs
     id="defs2" /><g
     inkscape:label="Layer 1"
     inkscape:groupmode="layer"
     id="layer1"><path
       id="path302"
       style="fill:#000000;stroke-width:0.332361"
       d="m 67.743189,0.00440625 c -4.755704,-0.04299 -10.013875,0.229612 -12.975321,0.770377 C 33.736587,4.6151913 16.145012,17.900609 6.7516034,37.037183 c -7.619865,15.523474 -8.836278,33.302069 -3.413231,49.892571 7.7490706,23.706416 28.6566096,41.268796 53.4215146,44.873386 4.436058,0.64659 14.060376,0.65235 18.646563,0.0112 26.50073,-3.7022 48.30192,-23.21716 54.89126,-49.133916 1.5488,-6.091625 1.99396,-9.775892 1.99396,-16.539609 0,-6.74402 -0.44479,-10.449157 -1.97454,-16.465314 C 123.67659,23.56033 101.95191,4.1671073 75.15599,0.43262225 c -1.88693,-0.263028 -4.559383,-0.402415 -7.412801,-0.428206 z M 65.403631,4.8436953 c 14.663519,-0.18744 28.868329,4.8168839 40.401529,14.5100417 15.26638,12.830762 23.49188,33.273922 21.33948,53.03664 -2.01732,18.522547 -11.97194,34.912013 -27.37766,45.072833 -8.13321,5.36415 -19.30661,9.22924 -28.125178,9.72942 v -0.002 c -1.700578,0.0969 -3.69032,0.22003 -4.420887,0.27374 -0.730607,0.0534 -3.04658,-0.01 -5.147028,-0.14264 C 39.257042,125.8939 18.834449,111.34141 9.8444764,90.105104 6.8558474,83.045144 5.3719854,76.333882 5.0605224,68.470069 4.0900214,43.978245 17.534489,21.616327 39.658792,10.922622 43.774969,8.9330752 47.127709,7.6724733 50.66927,6.7813643 c 4.908251,-1.234995 9.846519,-1.875187 14.734361,-1.937669 z m 1.326077,25.4008827 c -0.930044,-0.04777 -1.863504,0.174615 -2.665741,0.721495 -1.979583,1.349456 -2.493052,2.362729 -2.450223,4.847109 0.0928,5.358499 2.519036,16.10858 4.007338,17.755788 1.079415,1.194685 1.953001,0.500296 3.015211,-2.395204 1.603052,-4.369668 3.3165,-15.142299 2.745342,-17.26697 -0.576373,-2.143675 -2.605853,-3.557114 -4.651927,-3.662218 z m -22.255895,8.953173 c -1.566637,0 -2.811009,0.565905 -3.964629,1.802756 -1.138401,1.220514 -1.338816,4.230979 -0.382479,5.75631 1.156851,1.845096 9.07416,7.750297 13.55778,10.112644 0.998905,0.526304 2.322631,0.956128 2.943378,0.956128 1.053832,0 1.129979,-0.07283 1.129979,-1.091042 0,-2.113468 -3.846891,-8.756548 -8.379694,-14.470933 -1.89599,-2.390302 -2.977124,-3.065863 -4.904335,-3.065863 z m 43.820587,0.06648 c -2.117,-0.01119 -3.8359,1.570613 -7.57395,6.587301 -4.34626,5.832944 -6.48114,9.97782 -5.90811,11.473508 0.30269,0.790149 1.53202,0.594494 4.14325,-0.65892 4.63766,-2.22619 12.71825,-7.973008 13.78107,-9.799804 1.72732,-2.968798 -0.0921,-6.865085 -3.50449,-7.506274 -0.32571,-0.06121 -0.63533,-0.09425 -0.93777,-0.09579 z m -22.055909,20.8764 c -2.988805,-0.01119 -5.824625,2.377168 -5.824625,5.963566 0,2.717822 1.339084,4.635628 3.869497,5.539271 1.564195,0.558465 1.942551,0.574388 3.508365,0.138821 2.625726,-0.730455 4.244208,-2.947847 4.244208,-5.813016 0,-1.74433 -0.531362,-2.936081 -1.879411,-4.213599 -1.169412,-1.108233 -2.559485,-1.610103 -3.918034,-1.61505 z m -31.053017,0.805567 c -1.7635,0.05431 -2.620515,0.562219 -3.617089,1.699128 -1.370141,1.562999 -1.634765,3.167203 -0.838747,5.081741 0.707466,1.701498 1.851488,2.699621 3.477305,3.032621 2.225976,0.456026 11.388107,-0.932211 16.153626,-2.447996 4.022138,-1.27935 4.826674,-2.601652 2.35315,-3.865561 -2.012126,-1.028196 -8.058891,-2.475068 -13.148123,-3.146028 -1.938274,-0.255558 -3.322015,-0.386484 -4.380122,-0.353887 z m 60.568336,0.248329 c -1.14862,0.05365 -2.52935,0.214889 -4.20926,0.465352 -8.73766,1.302764 -14.04147,3.236371 -13.1986,4.813871 0.71674,1.341411 6.49335,3.083896 13.74029,4.14321 5.61229,0.82034 7.24274,0.558929 8.90973,-1.425388 1.274,-1.5165 1.48781,-3.367998 0.60187,-5.201013 -1.04536,-2.162903 -2.39818,-2.956952 -5.84403,-2.796032 z M 57.086063,74.457106 c -2.04499,0 -9.068356,4.057301 -14.532437,8.395918 -2.627608,2.08652 -3.18327,3.11175 -2.984149,5.51581 0.134604,1.62591 0.302977,1.96952 1.518287,3.10497 1.213961,1.13435 1.557039,1.27679 3.057927,1.27679 2.231573,0 3.297052,-0.60376 5.280994,-2.99156 4.65908,-5.60754 8.663156,-12.154096 8.663156,-14.165916 0,-1.042742 -0.08292,-1.136012 -1.003778,-1.136012 z m 18.238847,0.174026 c -0.17791,-0.02389 -0.31835,-0.01767 -0.41549,0.01964 -0.73076,0.280848 -0.70193,1.719834 0.0757,3.769757 1.48296,3.909105 8.1214,13.830615 9.90186,14.797465 1.33449,0.72474 3.70359,0.66275 5.00335,-0.131 2.27708,-1.39063 3.12344,-4.63872 1.78234,-6.84149 -0.72842,-1.19644 -5.37786,-5.16776 -9.23592,-7.889504 -2.79458,-1.971534 -5.86649,-3.558986 -7.11187,-3.724786 z m -8.734994,3.640707 c -0.401278,-0.01865 -0.808697,0.264849 -1.228996,0.842725 -1.348093,1.8534 -3.616991,12.30635 -3.729706,17.1868 -0.06168,2.66806 0.40756,3.63449 2.432753,5.015266 0.708627,0.48238 1.591722,0.74886 2.492941,0.74886 1.556528,0 3.158549,-0.91027 4.286921,-2.436256 0.561312,-0.75912 0.683482,-1.37228 0.63877,-3.18904 -0.07162,-2.91419 -1.274977,-10.02292 -2.310437,-13.64777 -0.853089,-2.98658 -1.699445,-4.480127 -2.582246,-4.520585 z" /></g></svg>
