<?xml version="1.0" encoding="UTF-8" standalone="no"?>
<!-- Created with Inkscape (http://www.inkscape.org/) -->

<svg
   width="500.00012"
   height="432.8978"
   viewBox="0 0 132.29168 114.53754"
   version="1.1"
   id="svg5"
   xml:space="preserve"
   sodipodi:docname="colLogo.svg"
   xmlns:inkscape="http://www.inkscape.org/namespaces/inkscape"
   xmlns:sodipodi="http://sodipodi.sourceforge.net/DTD/sodipodi-0.dtd"
   xmlns="http://www.w3.org/2000/svg"
   xmlns:svg="http://www.w3.org/2000/svg"><sodipodi:namedview
     id="namedview7"
     pagecolor="#ffffff"
     bordercolor="#000000"
     borderopacity="0.25"
     inkscape:showpageshadow="2"
     inkscape:pageopacity="0.0"
     inkscape:pagecheckerboard="0"
     inkscape:deskcolor="#d1d1d1"
     showgrid="false" /><defs
     id="defs2" /><g
     id="layer1"
     transform="translate(-24.771573,-55.883036)"><path
       id="path302"
       style="fill:#000000;stroke:#000000;stroke-width:1.71427;stroke-dasharray:none;stroke-opacity:1"
       d="m 91.952385,56.743169 c -3.082434,-0.02782 -6.490548,0.14877 -8.41003,0.49932 -13.631547,2.489186 -25.033631,11.100205 -31.122025,23.503687 -4.938858,10.061632 -5.727282,21.584924 -2.212306,32.338164 5.022606,15.36545 18.573952,26.74861 34.62547,29.08495 2.87526,0.41909 9.113318,0.42282 12.085879,0.007 17.176607,-2.39961 31.307177,-15.04835 35.578097,-31.84646 1.00386,-3.94831 1.2924,-6.33629 1.2924,-10.720227 0,-4.371182 -0.2883,-6.772689 -1.27981,-10.672089 C 128.20595,72.011076 114.12497,59.441249 96.757036,57.020717 95.534017,56.850224 93.801848,56.759879 91.952385,56.743169 Z m -1.516399,3.13661 c 9.504246,-0.121449 18.711184,3.122082 26.186494,9.404763 9.89499,8.316345 15.22639,21.566698 13.83131,34.376018 -1.30755,12.00549 -7.75969,22.62842 -17.74499,29.21422 -5.27159,3.47681 -12.5137,5.98197 -18.2295,6.30619 v -8.4e-4 c -1.102243,0.0628 -2.391905,0.14261 -2.865427,0.17743 -0.473548,0.0346 -1.974659,-0.007 -3.336078,-0.0925 -14.788868,-0.92552 -28.025895,-10.3578 -33.852797,-24.12224 -1.937097,-4.57595 -2.898871,-8.9259 -3.100753,-14.02287 -0.629035,-15.874514 8.085079,-30.368535 22.425079,-37.299723 2.667918,-1.289532 4.841016,-2.106599 7.1365,-2.684169 3.181311,-0.800474 6.38208,-1.215414 9.550162,-1.255913 z m 0.859506,16.463729 c -0.60281,-0.03099 -1.207837,0.113118 -1.727815,0.467633 -1.283076,0.87466 -1.615884,1.531429 -1.588124,3.141691 0.06016,3.473148 1.632724,10.44087 2.597381,11.508513 0.699625,0.774353 1.265848,0.324279 1.954327,-1.552469 1.039025,-2.832223 2.149607,-9.814555 1.779407,-11.191683 -0.373577,-1.389439 -1.688996,-2.305564 -3.015176,-2.373685 z M 76.870205,82.14656 c -1.015426,0 -1.821971,0.366794 -2.569698,1.168468 -0.73786,0.791078 -0.867763,2.742327 -0.247906,3.730988 0.74982,1.195906 5.881471,5.023403 8.787555,6.554565 0.647444,0.341121 1.505427,0.619718 1.90777,0.619718 0.683045,0 0.732402,-0.04715 0.732402,-0.707164 0,-1.369848 -2.493389,-5.675607 -5.431352,-9.379424 -1.228898,-1.549288 -1.929637,-1.987151 -3.178771,-1.987151 z m 28.402575,0.04315 c -1.37215,-0.0067 -2.48627,1.017998 -4.90911,4.269591 -2.81705,3.780668 -4.200785,6.467186 -3.829374,7.436621 0.196191,0.512148 0.992989,0.385336 2.685472,-0.427084 3.005932,-1.442916 8.243412,-5.167741 8.932282,-6.351801 1.11957,-1.924244 -0.0597,-4.449632 -2.27145,-4.865221 -0.21112,-0.03965 -0.4118,-0.06114 -0.60782,-0.06214 z M 90.977105,95.720875 c -1.937209,-0.0067 -3.775261,1.540774 -3.775261,3.865314 0,1.761561 0.867932,3.004601 2.508039,3.590311 1.013839,0.36197 1.259074,0.37229 2.273963,0.09 1.701883,-0.47346 2.750911,-1.91066 2.750911,-3.767736 0,-1.1306 -0.344404,-1.903036 -1.218151,-2.731082 -0.757961,-0.718293 -1.658949,-1.043587 -2.539501,-1.046803 z m -20.127192,0.522127 c -1.143023,0.03515 -1.698504,0.36441 -2.344434,1.101295 -0.888072,1.013067 -1.059585,2.05284 -0.543641,3.293763 0.458544,1.10284 1.200052,1.74978 2.253835,1.96561 1.442777,0.29557 7.381265,-0.60421 10.470064,-1.58668 2.606974,-0.82923 3.128441,-1.686275 1.52521,-2.505492 -1.304169,-0.666431 -5.223417,-1.60423 -8.522032,-2.039111 -1.256301,-0.165596 -2.153188,-0.25051 -2.839002,-0.229369 z m 39.257727,0.160931 c -0.74449,0.03482 -1.63942,0.139274 -2.72826,0.301621 -5.66337,0.844389 -9.101064,2.09767 -8.554753,3.120133 0.464558,0.869443 4.208703,1.998843 8.905853,2.685453 3.63764,0.5317 4.69442,0.36228 5.77489,-0.92387 0.82576,-0.98293 0.96434,-2.183003 0.39011,-3.371079 -0.67756,-1.4019 -1.5544,-1.916564 -3.78784,-1.812258 z m -25.062729,8.596227 c -1.325474,0 -5.877711,2.62975 -9.419287,5.44185 -1.703101,1.35239 -2.063255,2.01689 -1.934195,3.57511 0.08725,1.05383 0.196378,1.27654 0.984089,2.01249 0.786836,0.73524 1.009204,0.82756 1.982008,0.82756 1.446413,0 2.13701,-0.39133 3.422912,-1.93898 3.019811,-3.63458 5.615073,-7.87776 5.615073,-9.18173 0,-0.67584 -0.05374,-0.7363 -0.6506,-0.7363 z m 11.821611,0.11278 c -0.115317,-0.015 -0.20634,-0.0117 -0.269303,0.0133 -0.473646,0.18204 -0.454959,1.11472 0.04906,2.44338 0.961189,2.53372 5.263931,8.9644 6.417951,9.59106 0.86496,0.46975 2.4005,0.42957 3.24295,-0.085 1.4759,-0.90135 2.02448,-3.00662 1.15524,-4.43436 -0.47213,-0.77547 -3.4857,-3.34951 -5.98632,-5.11362 -1.811327,-1.27786 -3.802404,-2.30677 -4.609604,-2.41424 z m -5.661634,2.35974 c -0.260094,-0.0117 -0.524165,0.17166 -0.796585,0.54621 -0.873771,1.20129 -2.344373,7.97645 -2.417427,11.13973 -0.04,1.72931 0.264163,2.35573 1.576801,3.25068 0.459302,0.31267 1.031683,0.48538 1.615813,0.48538 1.008875,0 2.047233,-0.58998 2.778594,-1.57908 0.363816,-0.49204 0.443001,-0.88945 0.414021,-2.06698 -0.0464,-1.88886 -0.826378,-6.49642 -1.497518,-8.8459 -0.552935,-1.93577 -1.101509,-2.90382 -1.673699,-2.93004 z" /><path
       id="path302-6"
       style="fill:#000000;stroke-width:0.129475"
       d="m 32.163732,148.94806 c -0.931587,-1e-5 -1.828607,0.0687 -2.355229,0.20568 -3.43804,0.89378 -5.380154,3.63725 -4.904002,6.92755 0.219341,1.51566 0.616431,2.38508 1.481599,3.24554 1.249681,1.24293 2.683983,1.75669 6.343856,2.27252 1.820317,0.25654 2.604155,0.62838 3.02544,1.43605 0.338487,0.64892 0.242264,1.64718 -0.216321,2.24517 -0.75357,0.98263 -2.044433,1.40808 -4.223924,1.3928 -1.516715,-0.01 -2.480682,-0.21504 -3.61823,-0.76812 -0.720912,-0.35052 -1.936333,-1.41353 -2.471357,-2.16169 l -0.277041,-0.38786 -0.0039,1.10969 c -0.0022,0.61024 -0.04255,1.81004 -0.0888,2.66567 l -0.08425,1.55523 0.965469,0.46148 c 1.291737,0.61794 3.211004,1.11106 4.754478,1.2205 h 6.16e-4 c 3.54533,0.25147 6.109438,-0.53524 7.861128,-2.4114 1.254862,-1.34404 1.836138,-3.34615 1.546117,-5.32527 -0.186873,-1.27515 -0.500344,-1.99452 -1.196212,-2.74537 -1.159854,-1.25149 -2.497944,-1.82215 -5.497551,-2.34384 -2.850398,-0.49574 -3.700185,-0.86445 -4.123736,-1.79203 -0.551161,-1.20705 -0.186833,-2.20671 1.001144,-2.74764 0.617449,-0.28113 0.903493,-0.32855 1.976478,-0.32562 2.152892,0.006 4.003816,0.65173 5.156754,1.79811 l 0.548008,0.54422 0.07437,-0.54422 c 0.04095,-0.29969 0.11338,-1.33938 0.160916,-2.30969 l 0.08654,-1.76395 -0.529793,-0.26868 c -0.920717,-0.46719 -1.772696,-0.76233 -2.828094,-0.97915 -0.666523,-0.13687 -1.633131,-0.20567 -2.564717,-0.20568 z m 73.690598,0.003 c -1.22171,-5.7e-4 -2.52807,0.0656 -3.53018,0.19809 -0.8166,0.10806 -1.53197,0.19658 -1.59012,0.19658 -0.0582,0 -0.10551,4.64068 -0.10551,10.312 v 10.31125 l 1.20075,0.16773 c 0.66048,0.0923 1.93098,0.20226 2.82354,0.2444 v -6.1e-4 c 6.39347,0.30132 9.86333,-1.08914 11.04064,-4.42505 0.3353,-0.95012 0.47604,-2.98576 0.27173,-3.93324 -0.35892,-1.66453 -1.48274,-3.16465 -2.92753,-3.90969 l -0.83264,-0.4296 0.37875,-0.42884 c 0.20816,-0.23584 0.53926,-0.73188 0.73548,-1.1021 0.32358,-0.61039 0.35675,-0.79939 0.35675,-2.02884 0,-1.17865 -0.0414,-1.44027 -0.31878,-2.00152 -0.71472,-1.44635 -2.37562,-2.54753 -4.47821,-2.96927 -0.66542,-0.13338 -1.80298,-0.20057 -3.02467,-0.20115 z m -8.705144,0.008 c -0.05712,0 -0.177124,0.0731 -0.266426,0.16168 -0.124889,0.12441 -1.482225,0.1609 -5.899843,0.1609 -3.156069,0 -6.352364,-0.0217 -7.102105,-0.0492 l -1.363191,-0.05 -0.03568,1.96967 c -0.0337,1.84856 -0.02221,1.96261 0.194315,1.8573 0.126877,-0.0615 1.297268,-0.12867 2.60039,-0.14953 l 2.369648,-0.0379 v 8.58373 8.58369 l 0.356735,0.0532 v 6.2e-4 c 0.19637,0.0297 1.189724,0.0627 2.207218,0.0729 l 1.84972,0.019 v -8.6582 -8.65886 l 2.596589,0.0395 2.596611,0.0402 v -1.96962 c -1.54e-4,-1.08304 -0.04685,-1.9689 -0.103963,-1.9689 z m -41.180434,0.25732 v 4.13206 4.13135 h -3.765476 -3.764722 v -4.1245 -4.12448 l -2.012147,0.009 -2.012159,0.009 v 10.36969 10.37045 l 0.292221,0.0554 v -6.2e-4 c 0.160661,0.0307 1.06605,0.0648 2.012152,0.0736 l 1.719933,0.0176 v -4.45695 -4.4562 l 3.732841,0.0341 3.732084,0.034 0.03414,4.3393 0.03414,4.34006 0.79622,0.0827 c 0.437962,0.0455 1.342763,0.0827 2.010627,0.0827 h 1.214416 v -10.45936 -10.45846 h -2.012157 z m 75.168398,0.004 v 4.13132 4.13057 h -3.69943 -3.70023 v -4.12677 -4.12676 l -2.01214,0.0117 -2.0129,0.0117 v 10.36816 10.36741 l 0.29222,0.0562 v 0.003 c 0.16066,0.0308 1.06605,0.0648 2.01215,0.0736 l 1.72067,0.0176 v -4.45468 -4.45465 h 3.70023 3.69943 v 4.37117 4.37194 l 0.87667,0.082 c 0.48197,0.0452 1.38737,0.083 2.01214,0.0834 l 1.13625,6.1e-4 v -10.45256 -10.45241 l -2.01215,-0.006 z m 16.49722,0.003 -2.19736,6.2e-4 -0.0896,0.41595 c -0.0491,0.22872 -1.68866,4.8761 -3.64404,10.32794 -1.95532,5.45185 -3.55523,9.93776 -3.55523,9.96817 0,0.0305 0.27716,0.0767 0.61633,0.1033 h 6e-4 c 0.33916,0.0266 1.31762,0.0589 2.17458,0.0722 l 1.55828,0.0227 0.71043,-2.25958 0.70967,-2.2596 h 3.57724 3.57649 l 0.72029,2.1632 0.72031,2.16243 2.19812,0.0957 c 1.20882,0.0529 2.26542,0.0816 2.34839,0.0646 0.0923,-0.0191 -1.27943,-3.94069 -3.53397,-10.10254 -2.02676,-5.53938 -3.68749,-10.23004 -3.68883,-10.42356 l -0.004,-0.35142 z m -75.305785,6.2e-4 -2.176857,6.2e-4 -0.08352,0.48045 c -0.04563,0.26424 -1.681291,4.92548 -3.634931,10.3583 l -3.552191,9.87785 0.665653,0.0759 c 0.366082,0.0418 1.348388,0.0855 2.182923,0.0971 l 1.517281,0.0214 0.66414,-2.09869 c 0.365142,-1.15401 0.688523,-2.17212 0.718784,-2.26187 0.04286,-0.12777 0.841363,-0.15591 3.650872,-0.12909 l 3.595456,0.0349 0.689186,2.14194 0.689186,2.1427 2.302099,0.0791 c 1.266299,0.0431 2.323765,0.0573 2.349916,0.0312 0.02607,-0.0261 -1.590099,-4.52572 -3.591677,-9.99928 -2.001522,-5.47356 -3.677013,-10.15451 -3.723724,-10.40232 l -0.08496,-0.45011 z m 32.519295,3.02774 h 1.62276 c 1.4032,0 1.68418,0.0362 2.07668,0.26565 0.9109,0.53218 1.29053,1.54761 1.02999,2.756 -0.17097,0.79285 -0.49698,1.22404 -1.20381,1.5924 -0.43578,0.22705 -0.8205,0.29121 -1.99925,0.33321 -1.16243,0.0414 -1.47282,0.0158 -1.52791,-0.12749 -0.0382,-0.0989 -0.0536,-1.22349 -0.034,-2.49943 z m 42.62861,2.45542 c 0.0514,0.0511 2.35599,7.02332 2.35599,7.1279 0,0.0196 -1.0578,0.0357 -2.35067,0.0357 -1.82325,0 -2.33847,-0.0364 -2.29602,-0.16166 0.0302,-0.0888 0.54417,-1.71422 1.14232,-3.61217 0.59816,-1.89793 1.11488,-3.42311 1.14838,-3.38976 z m -75.326277,0.0622 c 0.06806,-0.17321 2.37294,6.54655 2.380276,6.94044 0.0022,0.12309 -0.536014,0.16167 -2.268689,0.16167 -1.806932,0 -2.272491,-0.0354 -2.272491,-0.1723 0,-0.14629 1.939266,-6.36523 2.160904,-6.92981 z m 34.583827,5.70779 c 1.8407,-0.053 3.72595,0.35863 4.55637,1.03381 0.50589,0.4113 0.76194,1.05501 0.759,1.90966 -0.004,1.45294 -0.7326,2.47788 -2.26793,3.18789 -0.71361,0.33006 -0.92066,0.36219 -2.4668,0.38481 -0.92826,0.0132 -1.86322,-0.0155 -2.07743,-0.0646 l -0.38937,-0.0888 v -3.09756 -3.09754 l 1.10361,-0.11617 c 0.25795,-0.0271 0.51959,-0.0441 0.78255,-0.0516 z" /></g></svg>
